# xmcd
#
# Track frame offsets: 
#        150
#        38800
#        69005
#        98218
#        127767
#        163876
#        195706
#        226896
#        259838
#
# Disc length: 3820 seconds
#
# Revision: 1
# Processed by: cddbd v1.5.2PL0 Copyright (c) Steve Scherf et al.
# Submitted via: ExactAudioCopy v0.99pb5
#
DISCID=6e0eea09
DTITLE=Roger Hargreaves - Little Miss Collection Volume 1
DYEAR=1900
DGENRE=Baby Stories
TTITLE0=01 Roger Hargreaves - Little Miss Sunshine
TTITLE1=02 Roger Hargreaves - Little Miss Naughty
TTITLE2=03 Roger Hargreaves - Little Miss Chatterbox
TTITLE3=04 Roger Hargreaves - Little Miss Trouble
TTITLE4=05 Roger Hargreaves - Little Miss Giggles
TTITLE5=06 Roger Hargreaves - Little Miss Bossy
TTITLE6=07 Roger Hargreaves - Little Miss Helpful
TTITLE7=08 Roger Hargreaves - Little Miss Star
TTITLE8=09 Roger Hargreaves - Little Miss Scary
EXTD=
EXTT0=
EXTT1=
EXTT2=
EXTT3=
EXTT4=
EXTT5=
EXTT6=
EXTT7=
EXTT8=
PLAYORDER=
